<svg width="17" height="17" viewBox="0 0 17 17" fill="none" xmlns="http://www.w3.org/2000/svg">
<path fill-rule="evenodd" clip-rule="evenodd" d="M8.40654 5.5303C7.02423 4.14693 5.29661 3.56787 3.94617 3.33093C3.38475 3.23157 2.81625 3.17756 2.24617 3.16943C2.03071 3.16655 1.81522 3.17187 1.60017 3.18537L1.56086 3.18855H1.55023L1.54598 3.18962H1.54386L1.14011 3.22787L1.07104 3.62737L1.06998 3.63268L1.06786 3.64543L1.05936 3.69324L1.03492 3.86643C0.920209 4.7587 0.890325 5.65983 0.945669 6.55774C1.04979 8.16318 1.48542 10.2064 2.90492 11.6259C4.29254 13.0135 5.98404 13.5543 7.30367 13.7519C7.87496 13.8377 8.45284 13.8714 9.03023 13.8529V12.971L4.93642 8.87505L5.68867 8.1228L9.03129 11.4676V6.29637C8.84854 6.02012 8.64029 5.76405 8.40654 5.5303ZM10.0938 7.75624V11.645L11.8873 10.2106L12.5503 11.0394L10.0938 13.005V13.8422C10.4823 13.8469 10.8707 13.8249 11.2562 13.7764C12.222 13.6521 13.4768 13.3067 14.4097 12.3739C15.351 11.4314 15.7134 10.0087 15.8568 8.91118C15.9413 8.24964 15.969 7.58208 15.9397 6.9158L15.9375 6.8818V6.87118L15.9365 6.86905L15.9046 6.44087L15.4817 6.3803H15.4775L15.4679 6.37818L15.436 6.37393L15.3181 6.36012C14.7243 6.30002 14.1265 6.29007 13.531 6.33037C12.4929 6.40687 11.1244 6.68205 10.2425 7.60112L10.2 7.64362L10.0938 7.75624Z" fill="#42BA86"/>
</svg>
