<svg width="5" height="5" viewBox="0 0 5 5" fill="none" xmlns="http://www.w3.org/2000/svg">
<path d="M2.50003 1.30357L1.44128 0.664236C1.41017 0.648874 1.3813 0.642653 1.35466 0.645569C1.32821 0.64868 1.30245 0.657819 1.27737 0.672986C1.25209 0.688541 1.23303 0.710513 1.2202 0.738902C1.20737 0.767291 1.2062 0.798305 1.2167 0.831944L1.49845 2.03069L0.566574 2.83861C0.540324 2.86 0.523019 2.88557 0.514658 2.91532C0.506296 2.94507 0.508144 2.97356 0.520199 3.00078C0.532255 3.028 0.548296 3.05036 0.568324 3.06786C0.588546 3.08478 0.615769 3.09625 0.649991 3.10228L1.87966 3.20961L2.35916 4.34478C2.37238 4.37686 2.39144 4.4 2.41632 4.41419C2.44121 4.42839 2.46912 4.43549 2.50003 4.43549C2.53095 4.43549 2.55895 4.42839 2.58403 4.41419C2.60912 4.4 2.62807 4.37686 2.64091 4.34478L3.12041 3.20961L4.34978 3.10228C4.3842 3.09644 4.41152 3.08487 4.43174 3.06757C4.45196 3.05046 4.4681 3.02819 4.48016 3.00078C4.49202 2.97356 4.49377 2.94507 4.48541 2.91532C4.47705 2.88557 4.45974 2.86 4.43349 2.83861L3.50162 2.03069L3.78337 0.831944C3.79426 0.798694 3.79319 0.767777 3.78016 0.739194C3.76713 0.71061 3.74798 0.688638 3.7227 0.673277C3.69781 0.657722 3.67205 0.648486 3.64541 0.645569C3.61896 0.642653 3.59019 0.648874 3.55907 0.664236L2.50003 1.30357Z" fill="white"/>
</svg>
